<svg width="72" height="72" viewBox="0 0 72 72" fill="none" xmlns="http://www.w3.org/2000/svg">
<path d="M36 0C28.8799 0 21.9197 2.11136 15.9995 6.06709C10.0793 10.0228 5.46511 15.6453 2.74035 22.2234C0.0155983 28.8015 -0.697322 36.0399 0.691746 43.0232C2.08081 50.0066 5.50948 56.4211 10.5442 61.4558C15.5789 66.4905 21.9934 69.9192 28.9768 71.3083C35.9601 72.6973 43.1985 71.9844 49.7766 69.2596C56.3547 66.5349 61.9772 61.9207 65.9329 56.0005C69.8886 50.0803 72 43.1201 72 36C72 26.4522 68.2071 17.2955 61.4558 10.5442C54.7045 3.79284 45.5478 0 36 0V0ZM60.5948 51.9286H43.4932V38.4894L54.6676 39.7684V31.8197L40.6107 33.4232L52.6711 25.1875L48.0416 19.0419L38.4021 29.4863L40.3425 14.974H31.6638L33.6042 29.4863L23.9584 19.0419L19.3414 25.175L31.383 33.4107L17.3387 31.8197V39.7684L28.7002 38.4645V51.9286H11.4052C8.53135 47.5023 6.90526 42.3824 6.69845 37.1091C6.49164 31.8357 7.71178 26.6042 10.2302 21.9664C12.7486 17.3287 16.4719 13.4565 21.0074 10.7583C25.5429 8.06005 30.7226 6.63585 36 6.63585C41.2774 6.63585 46.4571 8.06005 50.9926 10.7583C55.5281 13.4565 59.2514 17.3287 61.7698 21.9664C64.2882 26.6042 65.5084 31.8357 65.3016 37.1091C65.0948 42.3824 63.4687 47.5023 60.5948 51.9286V51.9286Z" fill="#141416"/>
</svg>
