<svg version="1.1" id="Layer_1" xmlns="http://www.w3.org/2000/svg" xmlns:xlink="http://www.w3.org/1999/xlink" x="0px" y="0px"
	 width="100%" viewBox="0 0 482 220" enable-background="new 0 0 482 220" xml:space="preserve">
<path fill="#000000" opacity="1.000000" stroke="none" 
	d="
M483.000000,131.000000 
	C483.000000,160.970291 483.000000,190.940567 483.000000,221.000000 
	C365.979126,221.000000 248.958221,221.000000 131.130676,220.686768 
	C131.149796,219.919754 131.926285,219.231842 132.808456,219.046173 
	C160.432037,213.232559 183.067429,199.525970 199.854675,176.629883 
	C217.760010,152.208878 224.248276,124.844849 219.943726,95.032524 
	C215.995514,67.688110 203.732040,44.762974 182.395645,26.826706 
	C167.883636,14.627296 151.616577,6.310492 132.891190,2.921480 
	C132.168533,2.790691 131.626297,1.663108 131.000000,1.000001 
	C248.220932,1.000000 365.441864,1.000000 483.000000,1.000000 
	C483.000000,35.686832 483.000000,70.374756 482.756714,105.869278 
	C481.929169,105.916313 481.239807,105.215576 480.776917,104.388138 
	C475.916138,95.699081 465.502747,91.655899 455.776123,94.677628 
	C444.830444,98.078049 441.151703,105.377792 440.148315,114.387146 
	C439.147827,123.370171 443.290009,134.132736 452.407166,138.081558 
	C462.178772,142.313797 473.445740,142.820526 480.569916,132.078369 
	C480.982941,131.455627 482.172058,131.347595 483.000000,131.000000 
M300.537048,98.001549 
	C301.971191,97.923599 303.405304,97.845650 305.383148,97.738152 
	C303.148651,90.850464 300.652435,85.044724 294.615997,80.937820 
	C288.361603,76.682617 281.604187,76.716064 274.713989,77.050583 
	C266.079559,77.469795 259.084503,81.317604 253.959564,88.295395 
	C245.901779,99.266365 245.928909,111.526703 250.427109,123.393829 
	C254.586838,134.368027 267.650757,142.478699 281.583313,140.258148 
	C287.824249,139.263504 292.698547,136.491226 296.840271,131.401443 
	C296.984955,134.618271 297.101288,137.204865 297.217590,139.790451 
	C299.967529,139.790451 302.240784,139.790451 304.982391,139.790451 
	C304.982391,132.304901 305.406586,124.984871 304.833221,117.743828 
	C304.451202,112.919189 302.411499,108.333725 296.410858,107.851791 
	C290.401123,107.369125 284.376312,107.074875 278.343262,106.697105 
	C278.343262,109.984818 278.343262,112.369225 278.343262,115.002121 
	C283.163300,115.002121 287.643738,115.032310 292.123535,114.992188 
	C295.460541,114.962296 296.466522,116.405991 296.181946,119.787651 
	C295.582825,126.907578 290.555756,129.882416 284.954529,131.851639 
	C276.492126,134.826752 268.177032,133.013916 262.438263,126.485756 
	C253.829819,116.693153 254.067459,98.089676 264.258057,89.088890 
	C273.072845,81.303238 291.183563,82.186424 295.253815,95.380302 
	C295.627747,96.592461 298.145020,97.143417 300.537048,98.001549 
M424.952393,139.917755 
	C427.207642,139.917755 429.462891,139.917755 431.634399,139.917755 
	C431.634399,118.271759 431.634399,97.208443 431.634399,76.239212 
	C428.988831,76.239212 426.710663,76.239212 423.831604,76.239212 
	C423.831604,84.116257 423.831604,91.770638 423.831604,99.943947 
	C413.572693,90.617928 400.323486,93.380806 393.661926,100.686058 
	C386.205231,108.863319 385.544281,124.351357 392.897949,133.382019 
	C396.902985,138.300430 402.574371,140.284805 408.418671,140.803757 
	C414.197601,141.316895 419.473755,138.926682 423.762756,133.910645 
	C423.944000,136.280823 424.067627,137.897720 424.952393,139.917755 
M263.512726,4.000743 
	C259.423523,4.000743 255.334335,4.000743 251.378754,4.000743 
	C251.378754,25.066614 251.378754,45.438728 251.378754,65.763123 
	C264.691040,65.763123 277.623322,65.763123 290.718658,65.763123 
	C290.718658,63.473095 290.718658,61.423775 290.718658,58.860550 
	C280.058380,58.860550 269.665955,58.860550 259.378235,58.860550 
	C259.378235,51.617390 259.378235,44.898853 259.378235,37.855087 
	C267.692230,37.855087 275.632385,37.855087 283.710480,37.855087 
	C283.710480,35.124626 283.710480,32.740437 283.710480,29.841080 
	C275.371796,29.841080 267.310059,29.841080 259.390137,29.841080 
	C259.390137,23.591461 259.390137,17.871069 259.390137,11.833502 
	C269.715424,11.833502 279.652679,11.833502 289.697205,11.833502 
	C289.697205,9.104849 289.697205,6.720901 289.697205,4.424032 
	C289.092743,4.240089 288.786896,4.066708 288.480347,4.065463 
	C280.490143,4.033004 272.499908,4.018412 263.512726,4.000743 
M351.000366,118.512344 
	C350.938171,114.193146 351.537445,109.737511 350.680328,105.582283 
	C348.708038,96.020805 337.117310,90.681084 326.778168,93.586990 
	C318.809174,95.826759 312.631012,102.597961 313.494751,108.702736 
	C317.590088,109.672882 320.300232,108.961479 322.472748,104.508858 
	C324.456299,100.443520 329.350403,99.022614 333.649750,100.207497 
	C336.782074,101.070747 340.193939,103.240791 342.054169,105.846848 
	C344.745239,109.616951 343.053436,111.920311 338.423767,111.988983 
	C334.930908,112.040802 331.426666,111.832031 327.945221,112.038315 
	C321.908142,112.396042 316.541840,114.510323 314.091705,120.417229 
	C310.226318,129.736038 315.883881,139.675797 327.363739,140.062119 
	C333.298492,140.261841 338.414764,138.716507 342.810669,133.953873 
	C342.974548,136.461029 343.079742,138.070145 343.185883,139.694153 
	C345.873169,139.694153 348.274658,139.694153 350.586273,139.694153 
	C350.766663,139.085571 350.935699,138.778793 350.937256,138.471146 
	C350.969757,132.150085 350.983154,125.828949 351.000366,118.512344 
M307.999268,45.566143 
	C307.999634,43.568615 308.024902,41.570721 307.995605,39.573627 
	C307.916809,34.200146 311.211548,30.941032 315.561737,29.098976 
	C323.785034,25.616867 330.871277,30.539120 330.977173,39.517994 
	C331.080475,48.275261 330.999634,57.034702 330.999634,65.789948 
	C333.948822,65.789948 336.223755,65.789948 338.983429,65.789948 
	C338.983429,55.314102 339.224854,45.030109 338.819122,34.771709 
	C338.713501,32.101379 337.191620,28.871643 335.246460,27.037785 
	C332.520020,24.467360 328.972717,21.825340 325.446075,21.253992 
	C319.258209,20.251513 312.557861,19.955278 308.267853,27.663317 
	C308.024292,24.642855 307.885284,22.918707 307.746857,21.201923 
	C305.055481,21.201923 302.779907,21.201923 300.253174,21.201923 
	C300.253174,36.456390 300.253174,51.509171 300.253174,66.714081 
	C302.878815,66.714081 305.263458,66.714081 307.999237,66.714081 
	C307.999237,59.805771 307.999237,53.176720 307.999268,45.566143 
M364.463806,139.998795 
	C366.777954,140.264908 368.156250,139.815063 368.059723,136.902374 
	C367.856140,130.760178 367.898468,124.604462 368.021545,118.457939 
	C368.270905,106.006279 371.964050,102.319778 384.264404,101.964035 
	C384.723969,101.950729 385.177307,101.721886 385.695862,101.575943 
	C385.695862,99.428879 385.695862,97.379417 385.695862,95.083427 
	C379.158081,95.171272 372.417450,93.192802 368.212006,100.957809 
	C368.030823,98.521568 367.911407,96.916023 367.791534,95.304199 
	C365.126068,95.304199 362.725525,95.304199 360.005463,95.304199 
	C360.005463,109.538162 359.941284,123.472252 360.156738,137.402023 
	C360.170410,138.284851 362.359253,139.134033 364.463806,139.998795 
z"/>
<path fill="#AC00DC" opacity="1.000000" stroke="none" 
	d="
M130.531342,1.000001 
	C131.626297,1.663108 132.168533,2.790691 132.891190,2.921480 
	C151.616577,6.310492 167.883636,14.627296 182.395645,26.826706 
	C203.732040,44.762974 215.995514,67.688110 219.943726,95.032524 
	C224.248276,124.844849 217.760010,152.208878 199.854675,176.629883 
	C183.067429,199.525970 160.432037,213.232559 132.808456,219.046173 
	C131.926285,219.231842 131.149796,219.919754 130.662018,220.686768 
	C117.645775,221.000000 104.291542,221.000000 90.808960,220.699936 
	C89.864243,219.935974 89.098389,219.220718 88.224106,219.045013 
	C67.350807,214.849945 49.277008,205.114868 34.093102,190.437881 
	C17.867290,174.753723 7.272099,155.713333 2.898891,133.391312 
	C2.787993,132.825256 1.655855,132.459290 1.000000,132.000000 
	C1.000000,118.312439 1.000000,104.624878 1.300152,90.808853 
	C2.064173,89.864052 2.779457,89.098221 2.955080,88.223984 
	C7.148446,67.349754 16.885384,49.276344 31.562771,34.093475 
	C47.247082,17.869005 66.286224,7.270165 88.609421,2.898871 
	C89.175201,2.788080 89.540955,1.655852 90.000000,1.000000 
	C103.354225,1.000000 116.708458,1.000000 130.531342,1.000001 
M190.070145,70.393723 
	C180.066071,50.407181 164.472794,36.503788 143.904922,28.041063 
	C127.474564,21.280739 110.389313,20.070574 93.184761,23.505211 
	C73.611038,27.412819 57.223164,37.050911 43.978134,52.343815 
	C31.346382,66.928619 24.010632,83.708420 22.162483,102.606308 
	C20.334528,121.297714 24.274904,139.087555 33.741180,155.548538 
	C35.327469,158.306946 37.141651,159.066772 40.067074,159.046936 
	C54.732498,158.947464 69.398979,159.009964 84.065041,158.985672 
	C85.325272,158.983597 86.585136,158.762955 87.787079,158.649338 
	C87.787079,145.302536 87.787079,132.345428 87.787079,119.043877 
	C76.478752,120.336899 65.413483,121.602119 54.321327,122.870422 
	C54.321327,114.329094 54.321327,106.242668 54.321327,97.871536 
	C67.470863,99.340347 80.277992,100.770905 93.085114,102.201469 
	C93.115761,101.868431 93.146400,101.535400 93.177048,101.202370 
	C82.082123,93.579712 70.987206,85.957062 59.492088,78.059456 
	C64.458778,71.441460 69.191109,65.135742 74.166824,58.505722 
	C83.765015,68.897652 93.025208,78.923637 103.018188,89.743011 
	C100.990784,74.441147 99.133720,60.424953 97.290512,46.513313 
	C106.350250,46.513313 115.367897,46.513313 124.628731,46.513313 
	C122.728546,60.832657 120.899635,74.614883 118.905350,89.643288 
	C129.045853,78.709229 138.397491,68.625778 147.872894,58.408875 
	C150.864166,62.508095 153.281662,65.977875 155.859909,69.323784 
	C162.610947,78.084900 162.604568,78.012619 153.367584,84.271713 
	C145.066437,89.896660 136.851974,95.649574 128.599289,101.346046 
	C128.695023,101.629379 128.790741,101.912712 128.886475,102.196053 
	C141.775055,100.734566 154.663620,99.273079 167.730179,97.791412 
	C167.730179,106.617714 167.730179,114.708153 167.730179,122.982735 
	C156.455551,121.668739 145.466446,120.388031 134.252548,119.081116 
	C134.252548,132.416718 134.252548,145.494751 134.252548,158.997360 
	C150.959030,158.997360 167.417252,159.055359 183.873245,158.889374 
	C185.217270,158.875824 187.121460,157.655441 187.792389,156.452942 
	C194.282547,144.821014 198.793488,132.386551 199.882019,119.109589 
	C201.259018,102.314278 198.381607,86.120552 190.070145,70.393723 
z"/>
<path fill="#000000" opacity="1.000000" stroke="none" 
	d="
M89.531342,1.000000 
	C89.540955,1.655852 89.175201,2.788080 88.609421,2.898871 
	C66.286224,7.270165 47.247082,17.869005 31.562771,34.093475 
	C16.885384,49.276344 7.148446,67.349754 2.955080,88.223984 
	C2.779457,89.098221 2.064173,89.864052 1.300152,90.340195 
	C1.000000,60.406418 1.000000,30.812840 1.000000,1.000000 
	C30.353865,1.000000 59.708275,1.000000 89.531342,1.000000 
z"/>
<path fill="#000000" opacity="1.000000" stroke="none" 
	d="
M1.000000,132.468658 
	C1.655855,132.459290 2.787993,132.825256 2.898891,133.391312 
	C7.272099,155.713333 17.867290,174.753723 34.093102,190.437881 
	C49.277008,205.114868 67.350807,214.849945 88.224106,219.045013 
	C89.098389,219.220718 89.864243,219.935974 90.340302,220.699936 
	C60.406422,221.000000 30.812845,221.000000 1.000000,221.000000 
	C1.000000,191.646133 1.000000,162.291733 1.000000,132.468658 
z"/>
<path fill="#949D9E" opacity="1.000000" stroke="none" 
	d="
M483.000000,130.571533 
	C482.172058,131.347595 480.982941,131.455627 480.569916,132.078369 
	C473.445740,142.820526 462.178772,142.313797 452.407166,138.081558 
	C443.290009,134.132736 439.147827,123.370171 440.148315,114.387146 
	C441.151703,105.377792 444.830444,98.078049 455.776123,94.677628 
	C465.502747,91.655899 475.916138,95.699081 480.776917,104.388138 
	C481.239807,105.215576 481.929169,105.916313 482.756714,106.337936 
	C483.000000,110.024544 483.000000,114.049088 482.531342,118.536583 
	C470.807373,118.999535 459.552094,118.999535 447.618011,118.999535 
	C448.916992,122.004395 449.937164,124.348175 450.944519,126.697426 
	C453.827667,133.421173 468.107269,136.662018 472.530701,129.636642 
	C475.358795,125.145050 478.645172,124.578514 483.000000,125.000000 
	C483.000000,126.714355 483.000000,128.428711 483.000000,130.571533 
M464.996643,101.004990 
	C455.005035,100.987938 450.009247,104.374405 449.310883,111.679802 
	C457.793945,111.679802 466.268890,111.679802 474.927460,111.679802 
	C473.831268,106.143280 470.700287,102.844543 464.996643,101.004990 
z"/>
<path fill="#000000" opacity="1.000000" stroke="none" 
	d="
M483.000000,124.571533 
	C478.645172,124.578514 475.358795,125.145050 472.530701,129.636642 
	C468.107269,136.662018 453.827667,133.421173 450.944519,126.697426 
	C449.937164,124.348175 448.916992,122.004395 447.618011,118.999535 
	C459.552094,118.999535 470.807373,118.999535 482.531342,118.999771 
	C483.000000,120.714355 483.000000,122.428719 483.000000,124.571533 
z"/>
<path fill="#949D9E" opacity="1.000000" stroke="none" 
	d="
M300.102051,98.001480 
	C298.145020,97.143417 295.627747,96.592461 295.253815,95.380302 
	C291.183563,82.186424 273.072845,81.303238 264.258057,89.088890 
	C254.067459,98.089676 253.829819,116.693153 262.438263,126.485756 
	C268.177032,133.013916 276.492126,134.826752 284.954529,131.851639 
	C290.555756,129.882416 295.582825,126.907578 296.181946,119.787651 
	C296.466522,116.405991 295.460541,114.962296 292.123535,114.992188 
	C287.643738,115.032310 283.163300,115.002121 278.343262,115.002121 
	C278.343262,112.369225 278.343262,109.984818 278.343262,106.697105 
	C284.376312,107.074875 290.401123,107.369125 296.410858,107.851791 
	C302.411499,108.333725 304.451202,112.919189 304.833221,117.743828 
	C305.406586,124.984871 304.982391,132.304901 304.982391,139.790451 
	C302.240784,139.790451 299.967529,139.790451 297.217590,139.790451 
	C297.101288,137.204865 296.984955,134.618271 296.840271,131.401443 
	C292.698547,136.491226 287.824249,139.263504 281.583313,140.258148 
	C267.650757,142.478699 254.586838,134.368027 250.427109,123.393829 
	C245.928909,111.526703 245.901779,99.266365 253.959564,88.295395 
	C259.084503,81.317604 266.079559,77.469795 274.713989,77.050583 
	C281.604187,76.716064 288.361603,76.682617 294.615997,80.937820 
	C300.652435,85.044724 303.148651,90.850464 305.383148,97.738152 
	C303.405304,97.845650 301.971191,97.923599 300.102051,98.001480 
z"/>
<path fill="#949D9E" opacity="1.000000" stroke="none" 
	d="
M424.571838,139.716187 
	C424.067627,137.897720 423.944000,136.280823 423.762756,133.910645 
	C419.473755,138.926682 414.197601,141.316895 408.418671,140.803757 
	C402.574371,140.284805 396.902985,138.300430 392.897949,133.382019 
	C385.544281,124.351357 386.205231,108.863319 393.661926,100.686058 
	C400.323486,93.380806 413.572693,90.617928 423.831604,99.943947 
	C423.831604,91.770638 423.831604,84.116257 423.831604,76.239212 
	C426.710663,76.239212 428.988831,76.239212 431.634399,76.239212 
	C431.634399,97.208443 431.634399,118.271759 431.634399,139.917755 
	C429.462891,139.917755 427.207642,139.917755 424.571838,139.716187 
M400.509521,129.005798 
	C404.859222,133.044800 409.805206,134.153290 415.457489,132.179428 
	C421.975739,129.903152 424.397034,124.442352 424.859100,118.461868 
	C425.704987,107.514053 416.931610,99.814392 408.376068,101.897224 
	C395.644409,104.996750 391.508118,118.152145 400.509521,129.005798 
z"/>
<path fill="#949D9E" opacity="1.000000" stroke="none" 
	d="
M264.011169,4.000743 
	C272.499908,4.018412 280.490143,4.033004 288.480347,4.065463 
	C288.786896,4.066708 289.092743,4.240089 289.697205,4.424032 
	C289.697205,6.720901 289.697205,9.104849 289.697205,11.833502 
	C279.652679,11.833502 269.715424,11.833502 259.390137,11.833502 
	C259.390137,17.871069 259.390137,23.591461 259.390137,29.841080 
	C267.310059,29.841080 275.371796,29.841080 283.710480,29.841080 
	C283.710480,32.740437 283.710480,35.124626 283.710480,37.855087 
	C275.632385,37.855087 267.692230,37.855087 259.378235,37.855087 
	C259.378235,44.898853 259.378235,51.617390 259.378235,58.860550 
	C269.665955,58.860550 280.058380,58.860550 290.718658,58.860550 
	C290.718658,61.423775 290.718658,63.473095 290.718658,65.763123 
	C277.623322,65.763123 264.691040,65.763123 251.378754,65.763123 
	C251.378754,45.438728 251.378754,25.066614 251.378754,4.000743 
	C255.334335,4.000743 259.423523,4.000743 264.011169,4.000743 
z"/>
<path fill="#949D9E" opacity="1.000000" stroke="none" 
	d="
M351.000366,119.010086 
	C350.983154,125.828949 350.969757,132.150085 350.937256,138.471146 
	C350.935699,138.778793 350.766663,139.085571 350.586273,139.694153 
	C348.274658,139.694153 345.873169,139.694153 343.185883,139.694153 
	C343.079742,138.070145 342.974548,136.461029 342.810669,133.953873 
	C338.414764,138.716507 333.298492,140.261841 327.363739,140.062119 
	C315.883881,139.675797 310.226318,129.736038 314.091705,120.417229 
	C316.541840,114.510323 321.908142,112.396042 327.945221,112.038315 
	C331.426666,111.832031 334.930908,112.040802 338.423767,111.988983 
	C343.053436,111.920311 344.745239,109.616951 342.054169,105.846848 
	C340.193939,103.240791 336.782074,101.070747 333.649750,100.207497 
	C329.350403,99.022614 324.456299,100.443520 322.472748,104.508858 
	C320.300232,108.961479 317.590088,109.672882 313.491455,108.696014 
	C312.631012,102.597961 318.809174,95.826759 326.778168,93.586990 
	C337.117310,90.681084 348.708038,96.020805 350.680328,105.582283 
	C351.537445,109.737511 350.938171,114.193146 351.000366,119.010086 
M328.084259,119.004753 
	C325.725830,120.950554 322.685791,122.509430 321.275696,124.993523 
	C320.484253,126.387756 322.050232,131.030167 323.137726,131.244247 
	C327.422211,132.087677 332.323303,132.902878 336.272400,131.576096 
	C341.445801,129.838013 343.312134,124.449364 342.335815,119.000313 
	C337.919922,119.000313 333.450012,119.000313 328.084259,119.004753 
z"/>
<path fill="#949D9E" opacity="1.000000" stroke="none" 
	d="
M307.999268,46.056908 
	C307.999237,53.176720 307.999237,59.805771 307.999237,66.714081 
	C305.263458,66.714081 302.878815,66.714081 300.253174,66.714081 
	C300.253174,51.509171 300.253174,36.456390 300.253174,21.201923 
	C302.779907,21.201923 305.055481,21.201923 307.746857,21.201923 
	C307.885284,22.918707 308.024292,24.642855 308.267853,27.663317 
	C312.557861,19.955278 319.258209,20.251513 325.446075,21.253992 
	C328.972717,21.825340 332.520020,24.467360 335.246460,27.037785 
	C337.191620,28.871643 338.713501,32.101379 338.819122,34.771709 
	C339.224854,45.030109 338.983429,55.314102 338.983429,65.789948 
	C336.223755,65.789948 333.948822,65.789948 330.999634,65.789948 
	C330.999634,57.034702 331.080475,48.275261 330.977173,39.517994 
	C330.871277,30.539120 323.785034,25.616867 315.561737,29.098976 
	C311.211548,30.941032 307.916809,34.200146 307.995605,39.573627 
	C308.024902,41.570721 307.999634,43.568615 307.999268,46.056908 
z"/>
<path fill="#949D9E" opacity="1.000000" stroke="none" 
	d="
M363.999969,139.998825 
	C362.359253,139.134033 360.170410,138.284851 360.156738,137.402023 
	C359.941284,123.472252 360.005463,109.538162 360.005463,95.304199 
	C362.725525,95.304199 365.126068,95.304199 367.791534,95.304199 
	C367.911407,96.916023 368.030823,98.521568 368.212006,100.957809 
	C372.417450,93.192802 379.158081,95.171272 385.695862,95.083427 
	C385.695862,97.379417 385.695862,99.428879 385.695862,101.575943 
	C385.177307,101.721886 384.723969,101.950729 384.264404,101.964035 
	C371.964050,102.319778 368.270905,106.006279 368.021545,118.457939 
	C367.898468,124.604462 367.856140,130.760178 368.059723,136.902374 
	C368.156250,139.815063 366.777954,140.264908 363.999969,139.998825 
z"/>
<path fill="#000000" opacity="1.000000" stroke="none" 
	d="
M190.291626,70.703537 
	C198.381607,86.120552 201.259018,102.314278 199.882019,119.109589 
	C198.793488,132.386551 194.282547,144.821014 187.792389,156.452942 
	C187.121460,157.655441 185.217270,158.875824 183.873245,158.889374 
	C167.417252,159.055359 150.959030,158.997360 134.252548,158.997360 
	C134.252548,145.494751 134.252548,132.416718 134.252548,119.081116 
	C145.466446,120.388031 156.455551,121.668739 167.730179,122.982735 
	C167.730179,114.708153 167.730179,106.617714 167.730179,97.791412 
	C154.663620,99.273079 141.775055,100.734566 128.886475,102.196053 
	C128.790741,101.912712 128.695023,101.629379 128.599289,101.346046 
	C136.851974,95.649574 145.066437,89.896660 153.367584,84.271713 
	C162.604568,78.012619 162.610947,78.084900 155.859909,69.323784 
	C153.281662,65.977875 150.864166,62.508095 147.872894,58.408875 
	C138.397491,68.625778 129.045853,78.709229 118.905350,89.643288 
	C120.899635,74.614883 122.728546,60.832657 124.628731,46.513313 
	C115.367897,46.513313 106.350250,46.513313 97.290512,46.513313 
	C99.133720,60.424953 100.990784,74.441147 103.018188,89.743011 
	C93.025208,78.923637 83.765015,68.897652 74.166824,58.505722 
	C69.191109,65.135742 64.458778,71.441460 59.492088,78.059456 
	C70.987206,85.957062 82.082123,93.579712 93.177048,101.202370 
	C93.146400,101.535400 93.115761,101.868431 93.085114,102.201469 
	C80.277992,100.770905 67.470863,99.340347 54.321327,97.871536 
	C54.321327,106.242668 54.321327,114.329094 54.321327,122.870422 
	C65.413483,121.602119 76.478752,120.336899 87.787079,119.043877 
	C87.787079,132.345428 87.787079,145.302536 87.787079,158.649338 
	C86.585136,158.762955 85.325272,158.983597 84.065041,158.985672 
	C69.398979,159.009964 54.732498,158.947464 40.067074,159.046936 
	C37.141651,159.066772 35.327469,158.306946 33.741180,155.548538 
	C24.274904,139.087555 20.334528,121.297714 22.162483,102.606308 
	C24.010632,83.708420 31.346382,66.928619 43.978134,52.343815 
	C57.223164,37.050911 73.611038,27.412819 93.184761,23.505211 
	C110.389313,20.070574 127.474564,21.280739 143.904922,28.041063 
	C164.472794,36.503788 180.066071,50.407181 190.291626,70.703537 
z"/>
<path fill="#000000" opacity="1.000000" stroke="none" 
	d="
M465.419342,101.019447 
	C470.700287,102.844543 473.831268,106.143280 474.927460,111.679802 
	C466.268890,111.679802 457.793945,111.679802 449.310883,111.679802 
	C450.009247,104.374405 455.005035,100.987938 465.419342,101.019447 
z"/>
<path fill="#000000" opacity="1.000000" stroke="none" 
	d="
M400.243530,128.736816 
	C391.508118,118.152145 395.644409,104.996750 408.376068,101.897224 
	C416.931610,99.814392 425.704987,107.514053 424.859100,118.461868 
	C424.397034,124.442352 421.975739,129.903152 415.457489,132.179428 
	C409.805206,134.153290 404.859222,133.044800 400.243530,128.736816 
z"/>
<path fill="#000000" opacity="1.000000" stroke="none" 
	d="
M328.532166,119.002533 
	C333.450012,119.000313 337.919922,119.000313 342.335815,119.000313 
	C343.312134,124.449364 341.445801,129.838013 336.272400,131.576096 
	C332.323303,132.902878 327.422211,132.087677 323.137726,131.244247 
	C322.050232,131.030167 320.484253,126.387756 321.275696,124.993523 
	C322.685791,122.509430 325.725830,120.950554 328.532166,119.002533 
z"/>
</svg>