<svg width="160" height="160" viewBox="0 0 160 160" fill="none" xmlns="http://www.w3.org/2000/svg">
<path d="M80 0C64.1776 0 48.7104 4.69191 35.5544 13.4824C22.3984 22.2729 12.1447 34.7673 6.08967 49.3853C0.0346632 64.0033 -1.5496 80.0887 1.53721 95.6071C4.62402 111.126 12.2433 125.38 23.4316 136.568C34.6198 147.757 48.8742 155.376 64.3929 158.463C79.9113 161.55 95.9967 159.965 110.615 153.91C125.233 147.855 137.727 137.602 146.518 124.446C155.308 111.29 160 95.8224 160 80C160 58.7827 151.571 38.4344 136.568 23.4316C121.566 8.42853 101.217 0 80 0ZM134.655 115.397H96.6516V85.532L121.484 88.3742V70.7104L90.246 74.2738L117.047 55.9722L106.759 42.3153L85.338 65.5251L89.65 33.2756H70.364L74.676 65.5251L53.2409 42.3153L42.9809 55.9444L69.74 74.246L38.5304 70.7104V88.3742L63.7782 85.4767V115.397H25.3449C18.9586 105.561 15.345 94.1831 14.8854 82.4647C14.4259 70.746 17.1373 59.1204 22.7338 48.8142C28.3302 38.5082 36.6042 29.9033 46.6831 23.9073C56.762 17.9112 68.2724 14.7463 80 14.7463C91.7276 14.7463 103.238 17.9112 113.317 23.9073C123.396 29.9033 131.67 38.5082 137.266 48.8142C142.863 59.1204 145.574 70.746 145.115 82.4647C144.655 94.1831 141.042 105.561 134.655 115.397Z" fill="#AC00DC"/>
</svg>
